PathFileType	4	(X/Y/Z)	./resultDataOpenSim/trcMotMarkerGrf/sub10/qtm-03-03.trc
DataRate	CameraRate	NumFrames	NumMarkers	Units	OrigDataRate	OrigDataStartFrame	OrigNumFrames
250.000000	250.000000	13	24	m	250.000000	331	528
Frame#	Time	L.Toe.Tip			R.Toe.Tip			L.Ankle.Lat			R.Ankle.Lat			L.Ankle.Med			R.Ankle.Med			L.Heel			R.Heel			L.Knee.Lat			R.Knee.Lat			L.Knee.Med			R.Knee.Med			L.Thigh.Upper			R.Thigh.Upper			L.ASIS			R.ASIS			V.Sacral			L.Acromium			R.Acromium			C7			L.Elbow			R.Elbow			L.Wrist.Lat			R.Wrist.Lat
		X1	Y1	Z1	X2	Y2	Z2	X3	Y3	Z3	X4	Y4	Z4	X5	Y5	Z5	X6	Y6	Z6	X7	Y7	Z7	X8	Y8	Z8	X9	Y9	Z9	X10	Y10	Z10	X11	Y11	Z11	X12	Y12	Z12	X13	Y13	Z13	X14	Y14	Z14	X15	Y15	Z15	X16	Y16	Z16	X17	Y17	Z17	X18	Y18	Z18	X19	Y19	Z19	X20	Y20	Z20	X21	Y21	Z21	X22	Y22	Z22	X23	Y23	Z23	X24	Y24	Z24

331	1.32	0.10511162	0.0028446274	-0.086569891	0.91122776	0.039454856	0.088948561	0.11739995	0.13724623	-0.13804511	0.77057713	0.052511909	0.12895429	0.14728896	0.13783112	-0.05819206	0.7868902	0.07866146	0.044940328	0.084562688	0.18993088	-0.088434889	0.71793788	0.028390593	0.085365491	0.41734673	0.37346761	-0.1636001	0.76411709	0.45064215	0.150225	0.43918178	0.3251918	-0.051230311	0.76896895	0.46142491	0.020696683	0.50145263	0.74082387	-0.17511243	0.57871952	0.82400739	0.20127373	0.57524583	0.85132893	-0.12473322	0.6195219	0.89909746	0.10809809	0.39695665	0.88813712	0.024769947	0.54920627	1.3478292	-0.15051237	0.4906887	1.3492031	0.16352739	0.44005812	1.3670757	-0.010872059	0.55475774	0.9891054	-0.19900881	0.34078412	1.0407559	0.15522635	0.80522787	0.98619018	-0.24294296	0.32466026	0.83469629	0.28645309
332	1.324	0.11053661	0.0051469818	-0.087545452	0.91132015	0.039362169	0.088919537	0.12582565	0.14028183	-0.13848634	0.77061827	0.052500537	0.12889651	0.15582681	0.1402879	-0.058637929	0.78699361	0.078478056	0.044826538	0.094076597	0.19344299	-0.088959622	0.7179631	0.028382544	0.08537664	0.42769536	0.37295375	-0.1637788	0.76800681	0.44999829	0.15002388	0.44946885	0.32467837	-0.051341399	0.77225764	0.46075032	0.020509018	0.50962344	0.7403423	-0.17440372	0.58451575	0.8248785	0.2022568	0.58249196	0.85079783	-0.12343086	0.62536159	0.89948751	0.10915117	0.40307463	0.88843602	0.024389741	0.5558539	1.3478404	-0.14984864	0.49635273	1.3491267	0.16447994	0.44582318	1.3670285	-0.010344942	0.5595634	0.98903232	-0.1983708	0.34799369	1.0397654	0.15593787	0.80992093	0.98438536	-0.24278499	0.33285488	0.83349284	0.28689544
333	1.328	0.11685977	0.0075572192	-0.088757579	0.91137695	0.039286975	0.088893951	0.13437089	0.14338138	-0.1387978	0.77066277	0.052478631	0.12884377	0.16434303	0.14297208	-0.05890018	0.78703841	0.078355463	0.044751682	0.1032305	0.19691355	-0.089322615	0.71796388	0.028366109	0.085397693	0.43829704	0.37253672	-0.1639277	0.77171164	0.44941083	0.14981042	0.45987468	0.32444049	-0.051285564	0.77537367	0.46008295	0.020354396	0.51760359	0.74005371	-0.17362603	0.59021994	0.82567484	0.2032448	0.58960849	0.85040056	-0.12215613	0.63111349	0.8999073	0.11020731	0.4090919	0.88879005	0.024016302	0.56248174	1.347919	-0.149229	0.50200623	1.3490889	0.16541215	0.4516289	1.3671704	-0.0098880648	0.56439131	0.98902994	-0.19775409	0.35516486	1.0387133	0.15669723	0.81456837	0.98252765	-0.24267793	0.34115076	0.83229179	0.28735335
334	1.332	0.12414566	0.01013509	-0.090187239	0.91141667	0.039226532	0.088880086	0.14310192	0.1465824	-0.1389916	0.77073014	0.052448383	0.1287822	0.17288192	0.14589107	-0.058972567	0.78709617	0.078261267	0.044695013	0.11211154	0.20037159	-0.0895245	0.71795517	0.028338897	0.085405729	0.44915125	0.37220735	-0.1640238	0.77523497	0.44892893	0.1495899	0.47034152	0.32446682	-0.051092537	0.77832776	0.45944948	0.020247544	0.52535332	0.7399296	-0.17280579	0.59581357	0.826424	0.20422692	0.59659589	0.8501604	-0.12091093	0.63678427	0.90036457	0.11126242	0.41500402	0.88912915	0.023663175	0.56909117	1.3480776	-0.14864278	0.50765822	1.3491045	0.16631333	0.4574898	1.3675445	-0.0094809568	0.56926265	0.98911119	-0.19718756	0.36222602	1.0376375	0.15758903	0.8191782	0.98063438	-0.24262951	0.34953486	0.83111302	0.28782138
335	1.336	0.13240291	0.012955792	-0.0918274	0.91143914	0.039181966	0.088881992	0.15205759	0.14992012	-0.13907532	0.77080558	0.052412914	0.12872164	0.18150131	0.14900193	-0.058872722	0.78719334	0.078178969	0.044655705	0.1208244	0.20383069	-0.089518998	0.71795157	0.028295551	0.085383339	0.46026206	0.37197997	-0.16404418	0.77861134	0.4485747	0.14937438	0.480785	0.32474505	-0.050803488	0.78112724	0.45885958	0.020199914	0.53284286	0.73994776	-0.17196073	0.60127996	0.82715462	0.20518697	0.6034503	0.85009441	-0.11971098	0.64238165	0.90086146	0.11231833	0.42071418	0.88932447	0.023390591	0.57568849	1.3483219	-0.14807522	0.51331412	1.3491838	0.1671735	0.46341103	1.3681746	-0.0090913861	0.57415175	0.9892841	-0.19668859	0.36917734	1.0365819	0.15860348	0.82374299	0.97871162	-0.24261954	0.35798875	0.82997806	0.28828759
336	1.34	0.14155836	0.016041361	-0.093676841	0.91144449	0.039150668	0.088901475	0.16119897	0.15341345	-0.13903894	0.77086648	0.052377886	0.12867671	0.19025819	0.15224077	-0.058632673	0.78731207	0.078109904	0.044639068	0.12944453	0.20727954	-0.089221652	0.71796822	0.02823607	0.085316732	0.47161455	0.37188391	-0.16397436	0.78190406	0.44833127	0.14917827	0.49114374	0.32525579	-0.050450264	0.78378048	0.45831037	0.020214759	0.54005514	0.74009476	-0.17110017	0.60660023	0.8278845	0.20610341	0.61016471	0.85021146	-0.11858259	0.64790637	0.90139086	0.11337469	0.42610224	0.88934721	0.023258027	0.58227391	1.3486543	-0.14751361	0.51897365	1.3493334	0.16798386	0.46938499	1.3690486	-0.0086931804	0.57902122	0.9895513	-0.19626692	0.37607729	1.0355857	0.15965637	0.82823817	0.9767562	-0.24260976	0.3665152	0.82890635	0.28874106
337	1.344	0.15146436	0.019334009	-0.095700602	0.9114396	0.039126789	0.088937015	0.17043048	0.15706304	-0.13886008	0.77090071	0.052351729	0.12865563	0.19919616	0.15555888	-0.058302619	0.78742407	0.078062047	0.044647394	0.1380318	0.2106939	-0.088623755	0.71800533	0.028172589	0.085217285	0.48316817	0.37193305	-0.16381665	0.7851805	0.44816105	0.14902016	0.50146048	0.32596138	-0.050018684	0.78630533	0.45780089	0.020286378	0.54697331	0.74035971	-0.17025057	0.61175169	0.82861946	0.20695555	0.61673555	0.85052022	-0.11755367	0.65335285	0.90194267	0.11442465	0.43119203	0.88931316	0.023237437	0.58883737	1.3490803	-0.14694872	0.52463774	1.3495569	0.16873875	0.47539362	1.3701186	-0.0082779421	0.58385196	0.98991238	-0.19592927	0.38297355	1.0346771	0.16066922	0.83264029	0.97476539	-0.24258133	0.37516621	0.82791176	0.28918451
338	1.348	0.16195782	0.022740158	-0.097826	0.9114315	0.039106375	0.088984153	0.17972183	0.16084308	-0.13854443	0.77090136	0.052340453	0.12865849	0.2083368	0.15893457	-0.057941588	0.78751689	0.078038419	0.044677347	0.14663955	0.21405073	-0.087826239	0.71803999	0.028123087	0.085128004	0.49487003	0.37211312	-0.1635815	0.78845577	0.44804686	0.14892455	0.51187706	0.32681855	-0.049448548	0.7887295	0.45733679	0.020403743	0.55358494	0.74073318	-0.16945272	0.61671594	0.82935787	0.20772926	0.62316237	0.85103413	-0.11664183	0.65871719	0.9025143	0.11545798	0.43616718	0.88934194	0.023215149	0.59536174	1.3496068	-0.1463764	0.53030445	1.3498621	0.1694346	0.48141434	1.3713214	-0.0078525064	0.5886392	0.99037466	-0.19568292	0.38987306	1.0338713	0.16161121	0.83693457	0.97274276	-0.24254632	0.38402991	0.82700727	0.28963366
339	1.352	0.17291812	0.026192463	-0.099981271	0.9114205	0.039089677	0.089038776	0.18913433	0.16469314	-0.13812386	0.77084264	0.052347479	0.12868522	0.21767019	0.16235026	-0.05756391	0.78759527	0.07803454	0.044722172	0.15529523	0.2173282	-0.086949663	0.71804787	0.028098663	0.085084088	0.50666892	0.37239614	-0.16327104	0.79167309	0.44800694	0.14891373	0.52249282	0.32780496	-0.048700835	0.79108286	0.45692706	0.020549479	0.55989717	0.74121024	-0.16873742	0.62148876	0.8300929	0.2084203	0.62944638	0.85176697	-0.11585014	0.66400014	0.90311319	0.11646487	0.44120433	0.88946255	0.023081508	0.60183265	1.3502372	-0.14579542	0.53596544	1.3502628	0.17006935	0.4874258	1.3726009	-0.0074313946	0.59337819	0.99095926	-0.19553439	0.39675799	1.0331714	0.16248455	0.84111045	0.97069483	-0.24252785	0.39315302	0.82621385	0.29009863
340	1.356	0.18427619	0.029671444	-0.1021239	0.91140137	0.039078901	0.089098634	0.1987183	0.16853522	-0.1376128	0.77068122	0.052375915	0.12873968	0.22716162	0.16578407	-0.057126343	0.78766728	0.078043499	0.044775783	0.16400131	0.22050975	-0.086072625	0.71802736	0.028097557	0.085076795	0.51851894	0.37276231	-0.16287975	0.79476232	0.44805872	0.14899223	0.53328357	0.32891841	-0.047803074	0.79339116	0.45658298	0.020702015	0.56593573	0.74178944	-0.16811767	0.62608062	0.83081458	0.20903463	0.63559221	0.85272158	-0.11517959	0.66920549	0.90375063	0.11743883	0.44632736	0.8896694	0.022810685	0.60824626	1.3509683	-0.14520063	0.54161524	1.3507705	0.17064427	0.49340941	1.373917	-0.0070309319	0.59805486	0.99169253	-0.19548226	0.40360639	1.0325732	0.16329785	0.84516346	0.968626	-0.24253895	0.40248166	0.82555875	0.29056759
341	1.36	0.19599281	0.033185441	-0.1042328	0.91136914	0.039074508	0.089162594	0.20847008	0.17232445	-0.13702238	0.77041207	0.052422705	0.12881863	0.23677865	0.16924967	-0.056618103	0.78773389	0.078060612	0.044834579	0.1727639	0.22359947	-0.085248998	0.71799324	0.028107377	0.085070652	0.53037567	0.37321081	-0.1624067	0.79768104	0.44819167	0.14914338	0.54417776	0.33015448	-0.046813909	0.79567817	0.45631456	0.020844961	0.57173124	0.74246999	-0.16759352	0.63051185	0.83151284	0.20958351	0.64160693	0.85388501	-0.11463973	0.67433912	0.90443764	0.11837918	0.45141389	0.88999203	0.022468955	0.61460544	1.3517952	-0.14458377	0.547251	1.3513861	0.17116348	0.49934859	1.3752462	-0.0066623542	0.60264687	0.99259433	-0.1955163	0.41040259	1.0320733	0.16405701	0.84909846	0.96654192	-0.24256957	0.41193084	0.82506659	0.29101931
342	1.364	0.20803591	0.036744296	-0.10628426	0.91132236	0.039074135	0.089229575	0.21838608	0.17608456	-0.13640957	0.77010762	0.052472633	0.12890272	0.24648268	0.17281522	-0.056109407	0.78779038	0.078083715	0.044896649	0.18161802	0.22662571	-0.084537927	0.71795512	0.028113425	0.085043689	0.54219953	0.37375454	-0.16185763	0.80039057	0.44838534	0.14933839	0.55513091	0.33150197	-0.045775414	0.79797783	0.45612214	0.020974645	0.57731497	0.74325356	-0.16715186	0.63481269	0.83218167	0.21008083	0.64748985	0.85523692	-0.11424248	0.67940579	0.90518389	0.11928777	0.45631985	0.89048776	0.022151295	0.62090711	1.35272	-0.14394631	0.55286329	1.352104	0.17163139	0.50522937	1.3765803	-0.0063270565	0.60713021	0.99367212	-0.19563141	0.4171373	1.0316796	0.16476645	0.85292785	0.9644552	-0.24259011	0.42148512	0.82475644	0.29144984
343	1.368	0.22036202	0.040346401	-0.10824059	0.91126244	0.039075028	0.089297565	0.22848342	0.17987717	-0.13584744	0.76985757	0.052507412	0.12897079	0.25620411	0.17655782	-0.055681694	0.78783396	0.078110918	0.044961235	0.19061821	0.22961652	-0.083979123	0.7179114	0.028107781	0.084998649	0.55396768	0.37440984	-0.16123952	0.80285922	0.44861737	0.1495409	0.56611612	0.33295348	-0.044702854	0.80034278	0.45599322	0.021104146	0.58272388	0.74414845	-0.16676696	0.63902737	0.83282507	0.21054629	0.65322509	0.85675746	-0.11399229	0.68439911	0.90599029	0.1201588	0.46100936	0.89119394	0.021898683	0.62713497	1.3537536	-0.14330637	0.55844322	1.352922	0.17205371	0.51103888	1.3779217	-0.0060208755	0.61148433	0.99492119	-0.19584671	0.42380193	1.0314101	0.16542833	0.8566623	0.96237814	-0.24257412	0.43116242	0.82464106	0.29187151
